<svg width="90" height="90" viewBox="0 0 90 90" fill="none" xmlns="http://www.w3.org/2000/svg">
    <path opacity=".9" d="m46.886 26.287-.247-.15c-2.805-1.706-5.273-3.21-7.388-3.967a9.001 9.001 0 0 0-3.66-.589 6.75 6.75 0 0 0-3.611 1.388c-2.171 1.627-3.109 4.023-3.622 6.675-.5 2.568-.69 5.913-.927 9.986l-.011.21c-.143 2.437-.233 4.849-.233 7.035s.09 4.601.233 7.039l.011.206c.236 4.072.428 7.417.927 9.982.513 2.655 1.45 5.048 3.622 6.68 1.073.805 2.276 1.285 3.611 1.387 1.283.093 2.513-.177 3.66-.59 2.115-.757 4.583-2.26 7.388-3.963l.247-.15c1.598-.975 3.165-1.976 4.564-2.962a89.979 89.979 0 0 0 5.006-3.833l.188-.154c2.865-2.336 5.295-4.32 6.975-6.27 1.83-2.137 2.944-4.432 2.944-7.372 0-2.94-1.114-5.239-2.948-7.373-1.676-1.95-4.106-3.937-6.968-6.27l-.187-.153c-1.703-1.388-3.413-2.715-5.01-3.833a86.31 86.31 0 0 0-4.564-2.962" fill="#fff"/>
</svg>
